<?xml version="1.0" encoding="UTF-8"?><svg id="Capa_1" xmlns="http://www.w3.org/2000/svg" viewBox="0 0 20 20"><defs><style>.cls-1{fill:#fff;}</style></defs><path class="cls-1" d="m7.33,10.36h-1.91v2.19h1.87c.17,0,.34-.02.49-.05.16-.03.3-.09.41-.17.12-.08.21-.18.28-.32.07-.13.1-.31.1-.52,0-.41-.12-.7-.35-.88-.23-.17-.54-.26-.91-.26Z"/><path class="cls-1" d="m13.76,9.17c-.25,0-.46.04-.63.13-.16.09-.3.19-.4.32-.1.13-.17.26-.21.41-.04.14-.06.27-.07.38h2.58c-.04-.4-.18-.7-.37-.91-.19-.21-.51-.32-.9-.32Z"/><path class="cls-1" d="m7.97,8.94c.2-.15.3-.39.3-.72,0-.19-.03-.34-.1-.46-.07-.12-.16-.21-.27-.28-.11-.07-.24-.11-.39-.14-.14-.03-.3-.04-.45-.04h-1.64v1.86h1.77c.31,0,.57-.07.77-.22Z"/><path class="cls-1" d="m10,.5C4.75.5.5,4.75.5,10s4.25,9.5,9.5,9.5,9.5-4.25,9.5-9.5S15.25.5,10,.5Zm2.12,5.98h3.23v.79h-3.23v-.79Zm-2.02,6.16c-.16.3-.37.54-.63.72-.26.19-.57.32-.91.41-.34.09-.68.13-1.04.13h-3.86v-7.96h3.75c.38,0,.72.03,1.04.1.31.07.58.18.8.33.22.15.4.35.52.61.12.25.18.56.18.93,0,.4-.09.74-.27,1-.18.27-.45.49-.81.66.49.14.85.39,1.09.74.24.36.36.78.36,1.28,0,.4-.08.75-.23,1.04Zm2.73-.11c.24.23.58.35,1.02.35.32,0,.6-.08.83-.24.23-.16.37-.33.42-.51h1.39c-.22.69-.56,1.19-1.03,1.49-.46.3-1.02.45-1.67.45-.45,0-.86-.07-1.23-.22-.37-.15-.67-.35-.93-.62-.25-.27-.45-.59-.59-.96-.14-.37-.21-.78-.21-1.23s.07-.83.21-1.21c.14-.37.34-.7.6-.97.26-.27.57-.49.93-.64.36-.16.76-.23,1.2-.23.49,0,.92.09,1.28.29.37.19.66.44.9.76.24.32.4.68.51,1.09.1.41.14.84.11,1.28h-4.16c0,.46.15.89.39,1.12Z"/></svg>