<?xml version="1.0" encoding="UTF-8"?><svg id="Capa_1" xmlns="http://www.w3.org/2000/svg" viewBox="0 0 20 20"><defs><style>.cls-1{fill:#fff;}</style></defs><path class="cls-1" d="m14.66,6.47c-.11-.28-.24-.48-.45-.69-.21-.21-.41-.34-.69-.45-.21-.08-.53-.18-1.11-.21-.63-.03-.82-.03-2.42-.03s-1.79,0-2.42.03c-.58.03-.9.12-1.11.21-.28.11-.48.24-.69.45-.21.21-.34.41-.45.69-.08.21-.18.53-.21,1.11-.03.63-.03.82-.03,2.42s0,1.79.03,2.42c.03.58.12.9.21,1.11.11.28.24.48.45.69.21.21.41.34.69.45.21.08.53.18,1.11.21.63.03.82.03,2.42.03s1.79,0,2.42-.03c.58-.03.9-.12,1.11-.21.28-.11.48-.24.69-.45.21-.21.34-.41.45-.69.08-.21.18-.53.21-1.11.03-.63.03-.82.03-2.42s0-1.79-.03-2.42c-.03-.58-.12-.9-.21-1.11Zm-4.66,6.6c-1.7,0-3.07-1.38-3.07-3.07s1.38-3.07,3.07-3.07,3.07,1.38,3.07,3.07-1.38,3.07-3.07,3.07Zm3.19-5.55c-.4,0-.72-.32-.72-.72s.32-.72.72-.72.72.32.72.72-.32.72-.72.72Z"/><path class="cls-1" d="m10,8.01c-1.1,0-1.99.89-1.99,1.99s.89,1.99,1.99,1.99,1.99-.89,1.99-1.99-.89-1.99-1.99-1.99Z"/><path class="cls-1" d="m10,.5C4.75.5.5,4.75.5,10s4.25,9.5,9.5,9.5,9.5-4.25,9.5-9.5S15.25.5,10,.5Zm5.95,11.97c-.03.64-.13,1.07-.28,1.45-.15.39-.36.73-.69,1.06-.33.33-.67.54-1.06.69-.38.15-.82.25-1.45.28-.64.03-.84.04-2.47.04s-1.83,0-2.47-.04c-.64-.03-1.07-.13-1.45-.28-.39-.15-.73-.36-1.06-.69-.33-.33-.54-.67-.69-1.06-.15-.38-.25-.82-.28-1.45-.03-.64-.04-.84-.04-2.47s0-1.83.04-2.47c.03-.64.13-1.07.28-1.45.15-.39.36-.73.69-1.06.33-.33.67-.54,1.06-.69.38-.15.82-.25,1.45-.28.64-.03.84-.04,2.47-.04s1.83,0,2.47.04c.64.03,1.07.13,1.45.28.39.15.73.36,1.06.69.33.33.54.67.69,1.06.15.38.25.82.28,1.45.03.64.04.84.04,2.47s0,1.83-.04,2.47Z"/></svg>