<?xml version="1.0" encoding="UTF-8"?><svg id="Capa_1" xmlns="http://www.w3.org/2000/svg" viewBox="0 0 62.97 62.97"><defs><style>.cls-1{fill:#fff;}.cls-2{fill:#7d8c77;}</style></defs><circle class="cls-1" cx="31.49" cy="31.49" r="31.49"/><path class="cls-2" d="m35.11,27.36c.24,0,.54-.17.54-.41s-.3-.45-.54-.45-.43.19-.43.43.19.43.43.43Zm-17.4,2.71c.28,0,.35-.16.35-.44s-.16-.27-.44-.27-.41.09-.41.36.22.35.5.35Zm23.06-2.67c.19,0,.24-.11.24-.31s-.11-.19-.31-.19-.29.06-.29.25.16.24.35.24Zm-5.8,13.03c-.24,0-.43.19-.43.43s.19.43.43.43.54-.17.54-.41-.3-.45-.54-.45Zm19.93-18.91c-.24-.15-.35.07-.47.24-1.68,2.47-3.65,4.68-6.09,6.42-1.19.85-2.3,1.91-3.91,1.93-.52,0-1.09.18-1.53-.06-.49-.26-.98-.54-1.49-.78-.38-.18-.79-.31-1.08-.67-.11-.14-.29-.18-.48-.16-.12.01-.25.04-.3.17-.06.14.06.22.15.3.19.16.43.2.66.26.68.19,1.28.52,1.89.86-.97-.07-1.9-.27-2.81-.6-.6-.22-1.17-.5-1.69-.88-.18-.14-.42-.09-.52.11-.12.24.12.31.28.39.29.15.62.11.92.25,1.7.79,3.49,1.15,5.36,1.14.26,0,.52-.15.82,0-.13.07-.22.12-.31.17-1.59.78-3.25,1.35-4.96,1.81-.36.1-.68.1-1-.05-.41-.19-.81-.4-1.19-.67-.92-.67-1.72-1.48-2.56-2.25-.94-.86-1.92-1.66-3.1-2.18-.97-.43-2.01-.62-3.03-.9-1.25-.34-2.47-.74-3.31-1.82-.07-.09-.18-.16-.27-.07-.12.12.01.23.08.3,1,1.04,1.97,2.12,3.27,2.81,1.29.68,2.51,1.46,3.61,2.44.83.75,1.71,1.46,2.74,1.94.93.43,1.91.7,2.93.86-1.19.28-2.38.45-3.58.64-1.79.27-3.51.14-5.19-.52-1.51-.6-2.82-1.41-3.38-3.06-.03-.1-.09-.19-.14-.29-.95-1.83-2.29-3.3-4.09-4.35-.95-.56-2-.99-2.65-1.95-.04-.06-.11-.14-.2-.09-.07.05-.06.15-.02.22.14.32.3.63.53.89,1.06,1.18,1.92,2.5,2.72,3.86.81,1.38,1.8,2.56,3.35,3.15.89.34,1.73.76,2.56,1.24.95.55,1.98.92,3.08,1.15-.13.13-.25.13-.37.13-1.8.06-3.6.19-5.41.18-.54,0-1.07-.1-1.56-.33-1.2-.56-2.15-1.43-2.89-2.53-.25-.37-.44-.75-.61-1.16-.06-.13-.18-.23-.32-.14-.13.07-.08.21-.05.33.06.22.3.3.4.49.46.85,1.09,1.55,1.82,2.16.07.06.19.13.14.22-.08.12-.2,0-.28-.04-.52-.29-1.1-.49-1.53-.93-.13-.14-.32-.2-.52-.1-.09.05-.15.12-.13.22.04.19.2.25.36.28.4.07.75.27,1.1.46.83.43,1.67.82,2.56,1.12-.44.06-.87.1-1.31.11-.81.02-1.63.08-2.44.15-.28.02-.56.06-.84-.02-.94-.27-1.9-.36-2.88-.3-1.64.11-3.08.74-4.41,1.65-1.25.85-2.22,2-3.25,3.09-.09.1-.21.21-.11.34.11.14.24.02.35-.04,1.48-.9,3.06-1.52,4.76-1.84,1.51-.28,2.97-.71,4.27-1.54,1.3-.83,2.69-1.24,4.24-1.19.92.03,1.84-.09,2.76-.13,1.05-.04,2.11-.07,3.17-.1.06,0,.14-.03.18.04.03.06-.04.09-.07.12-.78.66-1.59,1.25-2.62,1.49-1.3.3-2.58.69-3.8,1.25-2.14.97-4.24,2-5.85,3.78-.14.15-.48.28-.31.52.16.23.41-.02.6-.11,1.85-.88,3.75-1.62,5.74-2.12,1.83-.46,3.44-1.31,4.69-2.76.43-.5.82-1.02,1.31-1.47.55-.5,1.14-.83,1.93-.83,1.05,0,2.11-.08,3.16-.17,1.34-.11,2.68-.26,4.02-.39.06-.04.12-.09.2-.02-.05.02-.11.04-.16.06-.61.34-1.23.65-1.87.91-1.51.62-3.12.8-4.73.92-.3.02-.55-.19-.86-.17-.24.01-.47.04-.51.33-.04.33.23.39.46.45.21.05.39-.06.57-.14.15-.06.28-.15.45-.17,1.11-.11,2.22-.27,3.32-.48.03-.04.09-.08.11-.03.03.06-.05.05-.08.07-.05.04-.1.09-.15.13-.33.23-.67.43-1.06.54-.24.06-.36.28-.25.5.11.24.32.1.48.02.14-.07.26-.17.36-.31.09-.13.21-.25.34-.33,1.14-.76,2.33-1.43,3.57-1.98.6-.26,1.18-.56,1.83-.69,2.44-.5,4.75-1.33,6.96-2.48.13-.07.23-.2.46-.18-.19.23-.33.42-.49.59-.8.85-1.81,1.36-2.88,1.78-.83.33-1.69.6-2.52.91-1.36.51-2.26,1.57-3.13,2.67-.69.88-1.45,1.68-2.54,2.08-.12.04-.32.05-.25.23.07.2.24.05.34.01,1.34-.45,2.6-1.05,3.79-1.81,1.44-.92,2.88-1.83,4.49-2.45.95-.37,1.83-.87,2.46-1.73.56-.76.9-1.63,1.27-2.49.07-.15.14-.28.29-.36,1.15-.69,2.22-1.48,3.25-2.34,1.9-1.59,3.51-3.43,4.84-5.53.11-.18.25-.41,0-.56Zm-27.21,5.37s0,0,0,0c0,0,0-.01.01-.02,0,0-.01.01-.01.02,0,0,0,0,0,0Zm.12.03s0,0,0,0c0,0,0,0,0,0-.03-.02-.06-.04-.09-.06.03.02.06.04.09.06,0,0,.01,0,.02.01,0,0-.01,0-.02-.01Zm7.54,4.36c-1.45-.8-2.76-1.82-4.13-2.75-.99-.67-2.02-1.29-3.12-1.79-.16-.08-.36-.11-.46-.3-.03,0-.07-.01-.1-.02,0-.01.02-.03.03-.04.03.02.05.04.08.06,1.88.48,3.82.8,5.41,2.05.69.53,1.33,1.11,1.97,1.7.67.62,1.33,1.26,2.05,1.84-.63-.13-1.18-.44-1.73-.74Zm-14.51-4.77s.04.05.06.08c0,0,0,0,0,0-.02-.03-.04-.05-.06-.08Zm.08.11h0s.04.04.06.06c-.02-.02-.04-.04-.06-.06Zm.28.47c-.08-.06-.14-.14-.15-.25-.04-.03-.07-.07-.07-.12,0,.05.03.09.07.12.01.11.07.18.15.25.02-.01.03-.03.05-.04t0,0s-.03.03-.05.04c.14.35.35.65.55.96-.2-.31-.41-.62-.55-.96Zm-.14-.26s.01-.01.01-.01c0,0,0,0,0,0,0,0,0,0-.01.01Zm3.71,4.07c-.04-.07-.07-.15-.13-.19.06.05.09.13.13.19.04.01.09.02.11.06-.03-.03-.07-.04-.11-.06Zm.8.15s-.12-.04-.17-.08c-.93-.65-1.72-1.44-2.44-2.3-.96-1.14-1.87-2.33-2.8-3.5-.04-.05-.05-.12-.07-.18-.01-.01-.02-.02-.04-.04.01.01.03.02.04.03,2.37,1.09,4.05,2.86,5.13,5.22.1.22.22.43.32.64.03.06.11.14.02.2Zm-3.7,2.11s-.04-.02-.06-.03c0,0,.02-.03.02-.02.02,0,.04.02.06.03,0,0-.02.03-.02.02Zm-8.42,3.63c-1.48.23-2.91.66-4.27,1.28-.03.02-.06.04-.09.06,0,0-.02-.02-.02-.03.03-.01.07-.03.1-.04.29-.53.79-.85,1.22-1.24,1.13-1.03,2.39-1.84,3.87-2.26,1.21-.34,2.44-.33,3.67-.14-1.15.18-2.28.41-3.33.93-.32.16-.63.36-.93.55-.07.04-.2.1-.11.21.06.07.15-.01.21-.05,1.02-.67,2.17-1.02,3.36-1.23.48-.09.96-.13,1.51-.21-1.66,1.01-3.3,1.89-5.19,2.18Zm2.59,3.89s0-.02,0-.02c0,0,.02,0,.03-.01-.02.03-.03.04-.04.04Zm9.21-3.94c-.56.78-1.38,1.2-2.22,1.57-1.32.59-2.75.83-4.12,1.29-.49.16-.98.33-1.47.49-.03.02-.06.04-.09.06,0,0-.02-.02-.02-.03l.11-.04c.6-.52,1.34-.81,2.06-1.12,1.58-.67,3.25-1.14,4.81-1.85.3-.14.61-.28.91-.41.03-.04.08-.08.11-.04.04.06-.04.06-.08.08Zm-1.33.36c-1.3.56-2.66.95-3.99,1.46-1,.38-1.95.86-2.89,1.38-.12.16-.29.26-.47.33-.11.19-.23.39-.49.38.12-.19.26-.34.46-.41.12-.17.28-.27.47-.34.48-.52,1.11-.83,1.71-1.16,2.16-1.19,4.41-2.17,6.84-2.65.02,0,.05,0,.13.03-.56.45-1.17.73-1.78,1Zm21.24-5.32s.01,0,.02,0c-.01,0-.02.02-.03.02,0,0,0-.01.01-.02Zm-7.99,4.86s.01,0,.02-.01c0,.01-.02.02-.02.03,0,0,0-.02,0-.02Zm-.49.91s0,0,0,0c.01-.01.03-.02.04-.03-.01.01-.03.02-.04.03Zm.21-.1s-.07.06-.12.07c.05,0,.09-.03.12-.07-.01-.01-.02-.03-.03-.04,0,0,0,0,0,0,.01.01.02.03.03.04.27-.06.49-.21.72-.35-.23.14-.45.29-.72.35Zm7.2-4.59c-.7.53-1.48.94-2.29,1.29-1.51.66-3,1.37-4.35,2.33-.04.05-.09.08-.16.08-.03.02-.05.04-.08.06.02-.02.04-.05.06-.07.05-.04.1-.07.14-.1.49-.84,1.18-1.5,2-2.01.67-.42,1.43-.64,2.17-.89,1.19-.39,2.34-.89,3.39-1.58.03-.02.06-.05.09-.07,0,0,.02-.02.03-.03,0,0-.02.02-.03.03-.02.03-.04.06-.06.1-.2.4-.58.61-.92.87Zm1.13-.57c-.06.03-.13.05-.17.09.04-.04.11-.06.17-.09,0-.06.02-.11.07-.14-.05.03-.06.08-.07.14Zm.09-.07s0-.05,0-.07c0,0,0,0,0,0,0,.03,0,.05,0,.07Zm.01-.09s0,0,0,0c.01,0,.02-.02.03-.02-.01,0-.02.02-.03.02Zm-23.66,8.6c-.17,0-.25.05-.25.22s.14.21.3.21.21-.1.21-.27-.1-.17-.27-.17Zm6.86-3.36c-.19,0-.29.06-.29.25s.16.24.35.24.24-.11.24-.31-.11-.19-.31-.19Z"/></svg>